<mxfile host="app.diagrams.net" modified="2023-09-13T03:58:48.509Z" agent="Mozilla/5.0 (X11; Linux x86_64) AppleWebKit/537.36 (KHTML, like Gecko) Chrome/112.0.0.0 Safari/537.36" version="21.7.4" etag="ZzkaxATAxq2WdR2koO2U" type="github">
  <diagram name="Page-1" id="1Gnks2G4VFnFFabbXrGB">
    <mxGraphModel>
      <root>
        <mxCell id="0" />
        <mxCell id="1" parent="0" />
      </root>
    </mxGraphModel>
  </diagram>
</mxfile>
